<svg width="1076" height="420" xmlns="http://www.w3.org/2000/svg" xmlns:xlink="http://www.w3.org/1999/xlink" xml:space="preserve" overflow="hidden"><defs><clipPath id="clip0"><rect x="75" y="1139" width="1076" height="420"/></clipPath></defs><g clip-path="url(#clip0)" transform="translate(-75 -1139)"><path d="M79.4234 503.048C-50.8747 491.212-139.877 429.92-168.732 388.787-197.587 347.656-176 253.098-93.7078 256.254-11.4151 259.409 296.17 366.596 325.025 407.727 353.879 448.858 209.722 514.882 79.4234 503.048Z" fill="#D1D387" fill-rule="evenodd" transform="matrix(1.00149 0 0 1 75.0333 1054.32)"/><path d="M791.645 102.375C917.435 66.5662 1022.49 91.7123 1064.2 119.686 1105.91 147.66 1119.79 243.577 1041.9 270.218 964.001 296.86 638.559 307.51 596.851 279.536 555.142 251.561 665.857 138.184 791.645 102.375Z" fill="#FDCBA5" fill-rule="evenodd" transform="matrix(1.00149 0 0 1 75.0333 1054.32)"/><path d="M0 89.8083C253.969 217.263 722.293 64.7142 1075.56 150.738L1076.23 366.691C768.612 231.668 307.962 517.696 0.339817 405.043 0.226544 230.455 0.113272 264.395 0 89.8083Z" fill="#79A8A7" fill-rule="evenodd" transform="matrix(1.00149 0 0 1 75.0333 1054.32)"/></g></svg>