<svg width="1124" height="115" xmlns="http://www.w3.org/2000/svg" xmlns:xlink="http://www.w3.org/1999/xlink" xml:space="preserve" overflow="hidden"><defs><clipPath id="clip0"><rect x="65" y="1923" width="1124" height="115"/></clipPath></defs><g clip-path="url(#clip0)" transform="translate(-65 -1923)"><path d="M-45.8368 1268.03C24.0584 1234.91 342.238 1289.42 408.837 1328.02 475.436 1366.62 423.643 1466.51 353.75 1499.62 283.854 1532.74 56.0637 1565.32-10.5337 1526.72-77.1311 1488.12-115.732 1301.14-45.8368 1268.03Z" fill="#FDCBA5" fill-rule="evenodd" transform="matrix(1.00363 0 0 1 59.5569 493.776)"/><path d="M1134.41 1511.77C866.296 1342.27 371.902 1545.14-1.03047 1430.74L0.382228 815.258 1134.05 815.258 1134.41 1511.77Z" fill="#79A8A7" fill-rule="evenodd" transform="matrix(1.00363 0 0 1 59.5569 493.776)"/><path d="M868.902 454.249C1001.74 416.454 1112.68 442.995 1156.72 472.522 1200.77 502.047 1215.42 603.286 1133.16 631.406 1050.91 659.527 707.244 670.768 663.202 641.241 619.158 611.714 736.071 492.047 868.902 454.249Z" fill="#FDCBA5" fill-rule="evenodd" transform="matrix(1.00363 0 0 1 59.5569 493.776)"/><path d="M-1.03038 521.353C267.018 690.908 761.299 487.97 1134.15 602.407L1132.74 1218.12-0.671723 1218.12-1.03038 521.353Z" fill="#79A8A7" fill-rule="evenodd" transform="matrix(1.00363 0 0 1 59.5569 493.776)"/></g></svg>