<svg width="1124" height="171" xmlns="http://www.w3.org/2000/svg" xmlns:xlink="http://www.w3.org/1999/xlink" xml:space="preserve" overflow="hidden"><defs><clipPath id="clip0"><rect x="89" y="539" width="1124" height="171"/></clipPath></defs><g clip-path="url(#clip0)" transform="translate(-89 -539)"><path d="M-46.0032 1272.63C24.1457 1239.39 343.481 1294.1 410.321 1332.84 477.161 1371.58 425.181 1471.83 355.034 1505.07 284.884 1538.3 56.2672 1571-10.5719 1532.26-77.4111 1493.52-116.152 1305.87-46.0032 1272.63Z" fill="#FDCBA5" fill-rule="evenodd" transform="matrix(1 0 0 1.00113 82.9169 101.313)"/><path d="M1138.52 1517.26C869.44 1347.15 373.252 1550.75-1.03421 1435.94L0.383616 818.217 1138.16 818.217 1138.52 1517.26Z" fill="#79A8A7" fill-rule="evenodd" transform="matrix(1 0 0 1.00113 82.9169 101.313)"/><path d="M872.057 455.898C1005.37 417.965 1116.72 444.603 1160.92 474.238 1205.12 503.869 1219.83 605.475 1137.28 633.698 1054.72 661.921 709.812 673.203 665.61 643.568 621.405 613.934 738.743 493.833 872.057 455.898Z" fill="#FDCBA5" fill-rule="evenodd" transform="matrix(1 0 0 1.00113 82.9169 101.313)"/><path d="M-1.03412 523.245C267.987 693.416 764.062 489.741 1138.27 604.594L1136.85 1222.54-0.674162 1222.54-1.03412 523.245Z" fill="#79A8A7" fill-rule="evenodd" transform="matrix(1 0 0 1.00113 82.9169 101.313)"/></g></svg>