<svg width="4539" height="2728" xmlns="http://www.w3.org/2000/svg" xmlns:xlink="http://www.w3.org/1999/xlink" xml:space="preserve" overflow="hidden"><defs><clipPath id="clip0"><rect x="-14" y="-44" width="4539" height="2728"/></clipPath><clipPath id="clip1"><rect x="2528" y="693" width="1539" height="1991"/></clipPath><clipPath id="clip2"><rect x="2528" y="693" width="1539" height="1991"/></clipPath><clipPath id="clip3"><rect x="2528" y="693" width="1539" height="1991"/></clipPath><clipPath id="clip4"><path d="M3344.92 13.9725 4361.99 423.588 3952.37 1440.66 2935.3 1031.04Z" fill-rule="evenodd" clip-rule="evenodd"/></clipPath><clipPath id="clip5"><path d="M3344.92 13.9725 4361.99 423.588 3952.37 1440.66 2935.3 1031.04Z" fill-rule="evenodd" clip-rule="evenodd"/></clipPath><clipPath id="clip6"><path d="M3344.92 13.9725 4361.99 423.588 3952.37 1440.66 2935.3 1031.04Z" fill-rule="evenodd" clip-rule="evenodd"/></clipPath></defs><g clip-path="url(#clip0)" transform="translate(14 44)"><path d="M3405.02 1124.29C3415.58 943.625 3345.98 665.688 2924.81 674.298 2503.64 682.908 2017.15 1178.6 1529.68 1150.88 1042.21 1123.16 554.209 814.059 0 508" stroke="#FFFFFF" stroke-width="27.5" stroke-linecap="round" stroke-linejoin="round" stroke-miterlimit="10" fill="none" fill-rule="evenodd"/><g clip-path="url(#clip1)"><g clip-path="url(#clip2)"><g clip-path="url(#clip3)"><path d="M305.307 1764.45C260.017 1759.46 228.745 1744.23 208.391 1717.14 190.598 1693.55 175.366 1654.32 171.053 1620.89 169.166 1606.47 170.109 1565.09 172.536 1554.17 176.58 1535.57 182.51 1516.29 186.689 1507.4 196.125 1487.18 211.491 1476.26 232.384 1475.05 255.164 1473.56 269.722 1479.36 297.085 1500.52 350.059 1541.63 401.415 1597.71 430.8 1646.77 441.449 1664.3 445.088 1675.08 446.032 1691.66L446.841 1704.33 455.737 1693.68C460.59 1687.75 472.182 1672.92 481.617 1660.66 490.918 1648.39 500.758 1635.85 503.454 1632.75L508.306 1627.09 496.175 1627.9C474.473 1629.25 453.041 1623.86 435.922 1612.8 425.139 1605.66 407.885 1588.27 389.958 1566.3 374.726 1547.7 355.451 1527.75 345.745 1520.74 342.78 1518.45 329.57 1510.63 316.36 1503.08 287.919 1486.77 280.91 1482.46 270.261 1473.7 250.177 1457.39 237.776 1431.24 241.28 1412.37 243.842 1398.89 253.681 1384.87 268.104 1374.35 276.057 1368.56 292.098 1361.95 301.668 1360.74L308.812 1359.8 297.624 1348.07C266.352 1315.59 256.647 1292.4 266.352 1272.86L269.183 1267.33 264.735 1266.39C255.838 1264.77 241.685 1256.41 234.406 1248.46 221.735 1234.71 217.287 1220.42 222.275 1210.18 226.723 1200.74 231.845 1198.72 260.556 1194.94 268.778 1193.73 279.697 1191.71 284.549 1190.23 292.637 1187.8 308.138 1178.77 316.765 1171.36L320.135 1168.39 314.743 1169.2C311.777 1169.74 303.285 1171.09 295.872 1172.16 279.697 1174.73 242.763 1176.48 230.227 1175.13 217.287 1173.92 208.256 1170.55 202.19 1164.75 191.811 1154.78 192.485 1143.99 204.347 1132.67L211.626 1125.8 207.986 1117.98C205.291 1112.05 204.347 1107.46 203.808 1097.76 203.269 1086.3 202.999 1085.22 199.899 1083.61 183.589 1074.84 163.639 1031.31 156.765 989.385 153.53 969.3 153.53 931.289 156.765 919.292 162.291 899.073 169.435 887.481 185.476 872.114 209.874 848.795 236.023 836.798 303.69 817.388 380.253 795.552 458.298 777.759 527.043 766.436 602.662 754.035 625.038 752.148 658.871 755.518 662.78 755.922 658.601 754.44 648.357 751.744 616.68 743.252 606.301 738.399 596.057 727.346 578.264 707.936 574.625 673.833 585.813 628.273 598.888 574.355 620.724 517.338 651.188 456.95 689.334 381.331 724.111 327.414 835.72 171.188 888.424 97.3209 926.84 41.3816 938.163 21.567 939.646 19.0059 943.285 13.2098 946.116 8.76158L951.238 0.673968 958.921 0.269587 966.739-0.134794 963.639 4.98736C952.182 24.128 931.423 56.6133 918.888 75.4844 899.073 105.004 859.578 161.078 828.846 203.538 792.721 253.277 736.916 334.962 718.584 364.617 665.476 451.019 637.573 508.172 613.985 578.669 589.452 652.131 586.082 687.852 601.449 711.98 609.402 724.515 621.129 731.12 647.279 737.995 682.999 747.161 700.792 748.509 735.973 744.195 775.198 739.343 823.723 756.192 886.942 796.63 933.984 826.689 973.479 860.792 1007.04 900.421 1037.1 936.006 1056.65 964.717 1089.81 1021.74 1141.57 1110.7 1171.36 1152.48 1207.35 1186.05 1221.63 1199.26 1232.15 1207.62 1260.32 1228.1 1295.91 1253.98 1312.22 1275.55 1317.74 1304.13 1319.76 1313.83 1319.9 1317.34 1318.55 1325.56 1316.26 1340.39 1312.22 1349.55 1304.53 1358.05 1293.75 1369.91 1279.06 1375.43 1240.1 1382.31 1194 1390.4 1133.48 1411.56 1026.72 1457.25 921.853 1502.14 889.233 1515.21 848.93 1528.42 843.808 1530.18 839.764 1531.52 839.764 1531.66 839.764 1531.79 840.438 1534.09 841.112 1536.65 843.268 1543.79 846.503 1571.02 846.503 1581.8 846.503 1610.65 838.955 1640.71 826.284 1662 789.621 1723.87 702.948 1733.85 622.746 1685.19 595.248 1668.47 574.76 1648.26 560.067 1623.05 557.371 1618.6 554.81 1614.83 554.406 1614.83 554.001 1614.83 550.227 1615.91 546.049 1617.12 530.817 1621.7 516.798 1635.58 484.987 1677.51 454.119 1718.21 441.584 1731.02 420.421 1743.69 393.193 1760 344.802 1768.63 305.307 1764.45ZM343.05 1751.24C342.241 1750.56 338.062 1749.08 333.614 1747.73 323.1 1744.5 309.486 1737.76 298.029 1730.08 287.11 1722.8 266.756 1702.31 259.208 1690.99 233.597 1652.7 225.375 1607.28 231.171 1535.3 232.249 1521.55 233.867 1505.37 234.676 1499.17 235.484 1492.97 235.754 1487.58 235.35 1487.18 234.945 1486.77 230.632 1487.45 225.779 1488.79 218.77 1490.68 215.265 1492.57 209.604 1497.83 200.573 1506.05 195.585 1516.02 190.194 1537.19 176.445 1589.76 180.489 1633.97 202.864 1680.2 215.131 1705.41 225.779 1719.56 240.606 1730.08 254.625 1740.05 274.979 1747.33 298.837 1750.83 309.082 1752.32 344.667 1752.59 343.05 1751.24ZM389.958 1738.16C407.885 1733.45 424.6 1721.31 429.857 1709.05 435.788 1695.57 433.092 1677.64 422.308 1657.96 395.349 1609.03 332.131 1541.5 274.709 1500.25 264.33 1492.84 251.929 1487.18 249.368 1488.79 248.559 1489.2 248.02 1491.63 248.02 1494.05 248.02 1496.48 246.807 1509.28 245.324 1522.63 239.124 1580.05 241.146 1614.83 252.468 1647.85 267.835 1692.33 303.016 1726.71 344.263 1737.49 356.259 1740.72 379.039 1740.99 389.958 1738.16ZM735.703 1702.44C762.123 1699.48 781.129 1691.66 796.495 1677.37 828.576 1647.58 840.168 1599.46 828.846 1543.12 827.902 1538.8 827.093 1535.3 826.958 1535.3 826.689 1535.3 821.162 1536.92 814.692 1538.8 746.756 1558.48 692.974 1562.39 656.175 1549.99 651.862 1548.64 648.087 1547.43 647.683 1547.43 647.144 1547.43 648.896 1551.2 651.322 1555.92 654.557 1562.12 662.375 1571.02 681.381 1590.56 708.879 1618.74 714.675 1627.09 719.124 1643.94 724.65 1665.37 718.584 1689.1 705.375 1697.19 702.814 1698.8 701.061 1700.42 701.6 1700.82 702.14 1701.36 710.227 1702.44 722.493 1703.66 723.572 1703.66 729.503 1703.25 735.703 1702.44ZM688.121 1691.52C695.669 1689.37 701.196 1684.65 705.644 1676.7 709.014 1670.36 709.284 1668.88 708.745 1659.44 708.07 1648.26 704.027 1637.07 697.017 1626.69 694.861 1623.45 682.19 1609.97 668.98 1596.63 647.953 1575.47 644.178 1571.02 639.595 1561.99 635.417 1553.5 634.473 1549.99 634.338 1543.52 634.204 1529.1 640.943 1523.98 668.172 1517.78 677.607 1515.62 692.839 1511.17 702.005 1507.8 729.503 1497.56 766.975 1487.45 795.282 1482.59 800.808 1481.65 805.661 1480.71 805.931 1480.57 806.739 1479.9 793.934 1458.47 785.981 1447.01 765.493 1417.76 723.437 1384.6 694.322 1374.89 667.767 1366 605.627 1366.13 579.612 1375.03 560.741 1381.5 552.114 1390.4 546.318 1409.27 542.948 1420.86 543.218 1446.07 547.127 1467.23 554.406 1506.45 571.794 1567.38 582.847 1593.26 606.706 1648.39 648.222 1690.58 680.707 1692.87 681.786 1692.87 685.156 1692.33 688.121 1691.52ZM595.518 1643.54C589.991 1635.72 577.725 1614.02 576.377 1609.84 575.299 1606.47 573.412 1605.93 570.177 1608.09 568.02 1609.57 569.772 1613.61 579.073 1627.63 584.06 1635.32 598.483 1651.63 599.427 1650.68 599.697 1650.41 597.944 1647.18 595.518 1643.54ZM518.955 1612.27C526.908 1610.24 539.174 1604.45 546.992 1599.19 547.262 1599.06 545.375 1593.53 542.814 1586.92 519.494 1527.88 514.103 1450.65 527.852 1372.87 536.478 1324.21 558.315 1257.22 584.33 1198.99 593.9 1177.42 604.279 1155.59 619.646 1124.18 629.755 1103.82 639.865 1082.93 642.291 1077.67 644.718 1072.55 649.301 1062.85 652.401 1056.11 689.199 978.062 713.327 906.487 717.102 863.892 720.337 826.419 711.71 799.326 691.221 783.016 675.99 770.884 660.354 766.436 632.856 766.436 609.402 766.436 582.578 770.076 508.172 783.151 403.437 801.617 278.618 834.507 235.619 854.995 199.899 871.845 180.354 890.851 171.188 917.27 162.831 941.129 166.47 988.98 179.275 1025.24 188.037 1050.18 203.808 1074.3 211.221 1074.3 212.704 1074.3 214.861 1075.38 216.209 1076.87 218.096 1079.02 218.231 1080.24 216.883 1086.44 215.265 1093.98 215.939 1100.99 219.174 1110.97 222.14 1120.27 223.083 1120.54 233.867 1115.96 254.355 1107.19 289.267 1098.03 320.809 1093.18 348.711 1088.86 354.103 1088.46 382.14 1088.46 409.907 1088.46 416.242 1089.4 430.261 1095.33 437.27 1098.43 437.54 1101.53 432.013 1112.86 426.217 1124.72 414.895 1135.77 401.685 1142.38 394.136 1146.15 392.519 1147.63 391.845 1151.14 390.093 1159.63 376.883 1189.15 368.66 1202.76 356.394 1223.25 345.88 1236.6 335.097 1245.63 323.505 1255.2 307.464 1263.69 296.141 1265.98 281.853 1268.95 273.092 1280.81 276.327 1292.94 280.505 1307.9 293.85 1326.37 316.36 1347.94 333.344 1364.25 341.297 1368.69 353.159 1368.69 362.999 1368.69 368.66 1366.4 375.804 1359.53 382.409 1353.46 384.162 1349.01 385.51 1336.07 386.992 1322.59 389.014 1319.09 397.776 1314.51 406.133 1310.06 420.96 1310.87 432.013 1316.26 447.11 1323.54 460.05 1340.66 464.364 1358.85 470.969 1387.3 458.702 1419.51 431.07 1445.8 414.895 1461.16 400.876 1469.38 383.488 1473.97 368.391 1477.88 350.059 1475.58 340.354 1468.85 325.122 1457.93 319.461 1442.83 316.765 1406.57 316.091 1396.19 315.147 1384.46 314.608 1380.69L313.934 1373.55 308.138 1373.55C291.558 1373.55 266.622 1389.05 258.264 1404.68 252.468 1415.2 252.873 1425.71 259.343 1439.06 268.913 1458.33 281.584 1468.85 322.831 1491.76 361.921 1513.46 367.582 1518.31 401.415 1558.89 432.013 1595.55 446.841 1607.41 469.216 1613.48 481.617 1616.85 503.589 1616.31 518.955 1612.27ZM566.537 1593.8C568.155 1593.26 567.346 1589.76 561.954 1574.39 552.114 1545.95 544.701 1518.04 534.726 1471.27 533.243 1464.53 533.917 1484.21 535.804 1501.47 538.096 1523.98 542.679 1544.73 549.958 1566.3 558.989 1593.53 560.606 1596.09 566.537 1593.8ZM734.625 1542.71C757.675 1539.88 815.905 1526.4 822.106 1522.63 823.723 1521.55 818.197 1505.51 815.905 1504.7 815.097 1504.3 806.874 1506.45 797.708 1509.42 758.888 1522.09 705.914 1535.16 678.416 1538.8 674.507 1539.21 671.272 1540.15 671.272 1540.69 671.272 1544.46 711.44 1545.68 734.625 1542.71ZM857.422 1511.57C896.108 1498.23 944.094 1478.82 1018.9 1446.47 1103.15 1409.94 1138.33 1396.6 1186.59 1382.44 1214.89 1374.09 1226.76 1371.25 1250.21 1366.81 1275.15 1362.22 1283.91 1358.99 1292.4 1351.31 1301.97 1342.68 1305.48 1333.51 1305.48 1316.93 1305.48 1306.82 1304.8 1302.24 1302.24 1295.37 1294.96 1275.42 1279.33 1258.16 1247.78 1235.38 1221.77 1216.51 1210.18 1207.35 1196.56 1194.41 1165.69 1165.02 1135.91 1125.12 1101.4 1066.89 1031.04 948.407 1016.61 927.919 973.209 884.111 944.498 855.265 939.781 851.086 915.922 833.024 874.541 801.887 826.419 774.928 791.777 763.605 768.458 755.922 752.418 754.709 723.167 758.483 705.779 760.64 698.635 760.37 669.924 756.731L665.206 756.192 669.25 757.675C698.096 768.054 709.958 777.354 720.471 797.978 731.12 819.14 733.816 854.591 727.211 887.75 720.471 921.853 705.779 966.335 685.964 1012.97 674.372 1040.47 666.15 1057.99 632.317 1127.95 620.455 1152.75 610.615 1173.11 610.615 1173.38 610.615 1173.65 607.38 1180.66 603.336 1189.15 572.199 1254.52 551.306 1317.2 540.792 1376.92 538.5 1389.72 538.365 1391.34 540.253 1388.37 544.296 1381.9 556.563 1370.99 563.572 1367.35 590.396 1353.73 653.344 1350.63 693.648 1360.74 714.001 1365.86 732.199 1376.38 758.349 1398.35 780.724 1416.95 800.808 1442.02 814.692 1468.85L819.814 1478.55 829.385 1477.61C834.776 1477.07 843.403 1476.66 848.525 1476.66 857.826 1476.66 857.961 1476.66 858.365 1480.44 859.039 1485.83 857.287 1487.31 844.751 1492.3 827.498 1499.04 828.846 1497.42 832.755 1508.34 834.507 1513.46 836.798 1517.78 837.742 1517.78 838.685 1517.78 847.582 1514.94 857.422 1511.57ZM788.273 1498.77C793.26 1496.88 791.643 1496.48 784.498 1497.96 780.859 1498.63 778.163 1499.85 778.568 1500.52 779.242 1501.6 781.533 1501.2 788.273 1498.77ZM375.535 1462.38C393.867 1459.14 419.612 1442.16 433.496 1424.09 454.524 1396.73 458.298 1368.69 444.28 1344.7 437.54 1333.24 422.173 1323.67 410.446 1323.67 402.359 1323.67 399.393 1327.85 397.776 1341.47 396.158 1355.75 393.193 1361.82 384.162 1369.91 371.087 1381.63 350.868 1385.54 336.445 1379.21 332.805 1377.59 329.57 1376.24 329.031 1376.24 327.953 1376.24 328.627 1400.77 330.244 1416.81 333.075 1444.85 341.297 1458.6 357.877 1462.64 363.808 1463.99 366.638 1463.99 375.535 1462.38ZM292.232 1244.95C298.703 1239.43 313.665 1226.89 325.392 1216.92 339.41 1205.32 350.194 1194.94 356.125 1187.53 365.83 1175.53 377.287 1154.91 374.726 1154.1 372.435 1153.29 354.372 1159.22 349.115 1162.32 346.554 1163.94 336.714 1171.49 327.144 1179.04 301.264 1199.8 292.232 1203.57 256.782 1208.56 242.089 1210.58 238.854 1211.52 236.158 1214.09 233.597 1216.65 233.193 1218.13 233.867 1221.63 237.506 1238.35 257.86 1254.66 275.383 1254.93 279.831 1254.93 281.988 1253.58 292.232 1244.95ZM326.874 1235.38 332.266 1230.4 325.796 1234.84C318.787 1239.7 313.799 1244.55 318.787 1241.72 320.269 1240.91 323.909 1237.94 326.874 1235.38ZM257.456 1161.65C243.572 1155.85 233.597 1150.06 227.127 1144.13L219.579 1137.25 216.074 1139.95C210.008 1144.4 206.773 1149.52 208.391 1152.08 213.109 1159.63 224.836 1163 245.998 1163 257.59 1163.13 260.152 1162.73 257.456 1161.65ZM321.483 1151C339.68 1148.31 350.059 1145.75 355.99 1142.51 364.347 1137.79 381.601 1132.27 387.801 1132.27 398.719 1132.27 422.713 1112.99 420.151 1106.25 418.804 1102.75 403.302 1100.59 380.118 1100.72 343.858 1100.99 301.938 1107.6 264.195 1118.92 251.794 1122.56 233.193 1129.84 233.193 1131.05 233.193 1133.34 244.111 1141.16 253.412 1145.48 270.531 1153.43 292.367 1155.18 321.483 1151Z" stroke="#404040" stroke-width="4.5876" fill="#404040" transform="matrix(1 0 0 -1 2529 2683.95)"/></g></g></g><g clip-path="url(#clip4)"><g clip-path="url(#clip5)"><g clip-path="url(#clip6)"><path d="M491.274 907.927C430.055 892.699 375.841 846.404 344.166 781.225 328.328 748.636 321.932 721.225 321.932 683.763 321.932 634.422 331.374 605.488 370.663 533.914 401.12 478.482 404.471 468.126 423.963 363.049 428.532 337.465 440.106 329.851 484.268 322.541 507.416 318.886 556.756 317.668 567.112 320.714 571.68 321.932 575.944 325.587 577.163 328.632 578.686 333.506 582.95 335.028 600.005 336.856 611.884 338.074 621.326 339.902 621.326 341.424 621.326 342.643 612.188 342.947 600.919 342.034L580.208 340.511 580.208 403.862C580.208 482.441 577.772 495.233 557.975 514.116L544.269 527.518 546.401 544.269C547.315 553.406 550.36 565.589 552.797 571.68 555.538 578.076 557.366 592.087 557.366 605.792 557.366 618.584 558.584 630.463 559.802 632.29 561.02 634.117 568.635 637.163 576.858 639.295 599.396 644.778 609.143 650.869 609.143 659.092 609.143 667.316 604.574 671.884 593.914 674.625 584.168 677.062 572.29 668.229 561.63 651.478 554.32 639.904 553.711 639.6 536.35 639.6 518.99 639.6 518.38 639.904 516.553 649.042 513.812 663.661 496.451 679.194 483.05 679.194 472.695 679.194 472.086 678.585 472.086 668.839 472.086 656.351 487.619 640.818 503.456 638.077 513.507 636.25 514.116 635.336 515.944 620.412 516.858 611.579 517.771 599.092 517.771 592.391 517.771 585.691 521.426 572.594 525.69 563.457 535.132 542.746 533.914 532.086 519.294 514.726 503.152 495.233 501.02 484.573 501.02 410.562 501.02 328.937 498.583 333.201 542.137 334.115 571.985 334.724 578.686 332.592 566.807 325.891 554.015 319.191 485.487 324.368 455.943 334.419 434.928 341.424 430.664 349.039 424.877 386.806 413.912 457.466 404.471 484.573 366.704 551.579 335.942 606.097 323.759 651.478 326.805 698.687 332.896 785.794 393.811 867.724 474.522 897.876 504.675 909.145 555.538 910.668 591.173 901.836 654.828 885.693 717.57 840.921 745.286 791.885 762.951 760.819 769.043 734.321 769.043 689.854 768.738 627.417 761.428 606.706 711.174 526.299 695.641 501.629 679.803 472.695 676.148 462.035 672.798 451.679 667.316 424.268 663.966 401.425 657.57 355.13 653.001 341.729 641.123 331.374 625.59 317.668 614.625 315.84 541.528 314.622 503.761 314.013 468.735 312.186 463.862 310.967 459.294 309.749 453.202 305.18 450.766 300.612 446.806 293.302 446.806 292.084 452.593 284.165 457.466 277.16 458.075 274.114 455.639 267.414 453.202 260.408 453.811 257.667 458.989 252.185 463.558 247.007 464.776 242.439 463.862 235.434 462.644 227.21 463.558 225.078 471.172 221.423 480.309 216.55 502.238 212.286 534.218 208.631 544.269 207.413 555.234 205.586 558.584 204.367 564.371 201.931 564.371 201.626 555.538 197.058 550.36 194.317 538.787 191.271 529.65 190.053 505.284 187.007 499.802 181.829 523.558 184.266 548.533 186.702 566.503 193.707 566.503 201.017 566.503 209.241 564.675 209.85 526.299 214.723 488.837 219.596 474.522 223.555 469.344 229.647 466.908 232.692 466.908 234.52 469.954 237.261 473.304 239.698 477.263 239.698 486.4 236.347 515.03 226.296 563.152 222.642 590.564 228.733 608.534 232.388 615.539 238.784 608.838 245.18 597.874 256.145 527.518 258.581 488.228 249.444 473.913 246.094 471.476 246.398 465.994 251.271 459.903 256.754 457.771 266.5 462.339 269.241 463.558 269.85 471.781 268.632 480.309 266.5 518.38 256.449 600.919 258.276 611.884 269.241 617.975 275.637 614.016 282.642 600.919 288.734 591.478 292.998 580.513 293.911 545.183 293.607 507.416 293.607 498.279 292.388 481.223 286.602 462.644 280.206 461.426 279.901 457.771 285.079 455.639 288.124 453.811 292.998 453.811 296.043 453.811 307.008 465.08 308.835 542.137 310.663 653.001 313.404 657.57 316.45 668.534 398.988 676.148 457.466 681.935 472.39 718.788 528.736 761.428 593.914 774.22 630.463 774.22 688.331 774.525 758.992 750.768 810.769 698.382 852.8 634.117 904.577 559.193 924.679 491.274 907.927ZM503.456 663.661C512.898 653.305 514.421 642.646 506.502 642.646 492.187 642.646 471.476 664.575 476.959 673.712 480.004 678.585 494.319 673.407 503.456 663.661ZM601.528 665.184C606.097 660.615 606.097 659.701 601.528 654.828 597.264 649.955 575.944 642.646 566.807 642.646 561.02 642.646 563.152 648.128 573.812 659.092 584.777 670.971 593.609 672.798 601.528 665.184ZM552.797 609.752C552.188 595.132 549.447 577.163 547.01 569.853 540.614 551.883 540.614 522.34 547.01 517.162 571.985 496.756 573.203 492.187 574.726 409.344L576.249 342.034 568.939 340.206C564.98 338.988 551.274 338.074 538.482 338.074 503.456 338.074 504.675 334.419 506.198 416.958 507.72 491.883 508.634 496.451 525.386 515.335 534.218 525.081 536.046 529.345 536.046 540.614 536.046 548.838 533.304 559.802 529.65 567.112 525.081 575.944 522.949 587.518 521.731 607.315L520.208 635.031 536.959 635.64 553.711 635.945 552.797 609.752ZM594.828 284.165C629.854 273.2 596.96 263.454 533 265.891 494.015 267.414 470.258 271.982 473.608 277.16 475.74 280.815 498.888 286.297 522.34 289.038 548.228 292.084 575.335 290.256 594.828 284.165ZM600.919 245.18C629.549 232.692 533.914 226.296 496.451 238.479L482.746 242.743 494.928 244.875C501.629 246.094 508.634 247.616 510.157 248.53 515.335 250.358 595.132 247.921 600.919 245.18Z" stroke="#404040" stroke-width="11.953" fill="#404040" transform="matrix(0.927598 0.373581 0.373581 -0.927598 2935.3 1031.04)"/></g></g></g><path d="M3552 1162C3650.56 1066.04 3749.12 970.073 3878.97 925.742 4008.82 881.411 4225.75 876.195 4331.09 896.014 4436.43 915.833 4473.71 980.243 4511 1044.65" stroke="#FFFFFF" stroke-width="27.5" stroke-linecap="round" stroke-linejoin="round" stroke-miterlimit="10" fill="none" fill-rule="evenodd"/><path d="M3784 334C3826.86 252.634 3869.72 171.268 3929.39 110.601 3989.05 49.9342 4065.53 9.96714 4142-29.9999" stroke="#FFFFFF" stroke-width="27.5" stroke-linecap="round" stroke-linejoin="round" stroke-miterlimit="10" fill="none" fill-rule="evenodd"/><path d="M3463 1148 3482 1104" stroke="#FFFFFF" stroke-width="27.5" stroke-linecap="round" stroke-linejoin="round" stroke-miterlimit="10" fill="none" fill-rule="evenodd"/><path d="M3648 1182.89C3717.55 1145.66 3787.09 1108.44 3877.89 1150.88 3968.68 1193.32 4107.08 1399.73 4192.76 1437.54 4278.45 1475.34 4335.22 1426.52 4392 1377.7" stroke="#FFFFFF" stroke-width="27.5" stroke-linecap="round" stroke-linejoin="round" stroke-miterlimit="10" fill="none" fill-rule="evenodd"/><path d="M3436.98 480C3438.36 452.833 3382.69 364.367 3315 317" stroke="#FFFFFF" stroke-width="27.5" stroke-linecap="round" stroke-linejoin="round" stroke-miterlimit="10" fill="none" fill-rule="evenodd"/></g></svg>