<svg width="141" height="141" xmlns="http://www.w3.org/2000/svg" xmlns:xlink="http://www.w3.org/1999/xlink" xml:space="preserve" overflow="hidden"><defs><clipPath id="clip0"><rect x="449" y="1351" width="141" height="141"/></clipPath></defs><g clip-path="url(#clip0)" transform="translate(-449 -1351)"><path d="M543 1395.06C543 1408.04 532.479 1418.56 519.5 1418.56 506.521 1418.56 496 1408.04 496 1395.06 496 1382.08 506.521 1371.56 519.5 1371.56 532.479 1371.56 543 1382.08 543 1395.06Z" fill="#FFFFFF"/><path d="M566.5 1471.44 566.5 1447.94C566.5 1444.41 564.737 1440.89 561.8 1438.54 555.338 1433.25 547.112 1429.72 538.888 1427.38 533.013 1425.61 526.55 1424.44 519.5 1424.44 513.037 1424.44 506.575 1425.61 500.112 1427.38 491.888 1429.72 483.663 1433.84 477.2 1438.54 474.263 1440.89 472.5 1444.41 472.5 1447.94L472.5 1471.44 566.5 1471.44Z" fill="#FFFFFF"/></g></svg>